<svg xmlns="http://www.w3.org/2000/svg" viewBox="0 0 200 200" width="200" height="200">
  <circle cx="100" cy="100" r="96" fill="#0e424c"/>
  <circle cx="100" cy="100" r="96" fill="none" stroke="#d09a4c" stroke-width="3.5"/>
  <circle cx="100" cy="140" r="24" fill="#d09a4c"/>
  <g stroke="#fbf8f1" fill="none" stroke-linecap="round">
    <path d="M40,150 Q58,141 76,150 Q94,159 112,150 Q130,141 148,150 Q158,155 162,152" stroke-width="4.5"/>
    <path d="M50,164 Q68,156 86,164 Q104,172 122,164 Q138,157 152,164" stroke-width="3.5" opacity="0.7"/>
  </g>
  <g fill="#fbf8f1">
    <path d="M24,86 Q48,62 64,64 Q86,66 100,80 Q114,66 136,64 Q152,62 176,86 Q150,76 138,76 Q120,78 108,88 L106,104 Q100,110 94,104 L92,88 Q80,78 62,76 Q50,76 24,86 Z"/>
    <circle cx="100" cy="73" r="5.5"/>
  </g>
</svg>
